<svg width="236" height="36" viewBox="0 0 236 36" fill="none" xmlns="http://www.w3.org/2000/svg">
<path d="M128.833 7.6303V11.0891H142.602V16.8968H128.833V24.4987H120.872V1.65984H145.506V7.6303H128.833ZM163.995 20.551H152.576L150.716 24.4987H142.428L154.012 1.65984H162.658L174.24 24.4987H165.855L163.995 20.551V20.551ZM162.28 15.3955L158.985 8.3483L155.69 15.3955H162.28ZM193.996 15.7221L200.555 19.1804C198.499 22.6392 193.703 25.2493 187.373 25.2493C178.727 25.2493 172.724 20.8771 172.724 13.0793C172.724 5.28141 178.727 0.90918 187.667 0.90918C193.703 0.90918 198.467 3.55201 200.456 6.94549L193.867 10.3711C192.463 8.18499 190.31 7.14093 187.569 7.14093C183.523 7.14093 180.783 9.29438 180.783 13.0793C180.783 16.8641 183.523 19.0176 187.569 19.0176C190.31 19.0176 192.496 18.0383 193.996 15.7221H193.996ZM229.014 7.69562H219.976V24.4987H212.014V7.69562H203.01V1.65984H229.014V7.69562Z" fill="#475569"/>
<path d="M227.354 21.2356C227.354 19.1475 229.116 17.4834 231.661 17.4834C234.238 17.4834 236 19.1475 236 21.2356C236 23.3564 234.238 24.9878 231.661 24.9878C229.116 24.9878 227.354 23.3564 227.354 21.2356Z" fill="#475569"/>
<path d="M31.6757 24.6056H24.9822L22.5102 19.7266H9.10012L6.62809 24.6056H0L12.6917 0.659668H18.984L31.6757 24.6056H31.6757ZM25.5177 23.7351H30.2289L18.4604 1.53015H13.2154L1.44684 23.7351H6.09253L8.56456 18.8561H23.0457L25.5177 23.7351Z" fill="#475569"/>
<path d="M21.2785 15.4415H10.2988L15.7887 4.65137L21.2785 15.4415H21.2785ZM11.7185 14.571H19.8589L15.7887 6.57085L11.7185 14.571Z" fill="#475569"/>
<path d="M61.1192 24.6056H53.6665L47.041 16.7602H39.3393V24.6056H33.2263V0.659668H49.5836C55.9524 0.659668 59.9087 3.74419 59.9087 8.70952C59.9087 12.3751 57.7053 15.0758 53.8323 16.206L61.1192 24.6056ZM54.0712 23.7351H59.2116L52.2435 15.7023L52.9465 15.5386C56.8747 14.6235 59.0382 12.1982 59.0382 8.70952C59.0382 3.41606 54.1545 1.53015 49.5836 1.53015H34.0968V23.7351H38.4688V15.8897H47.4456L54.0712 23.7351Z" fill="#475569"/>
<path d="M49.287 12.4086H38.4348V5.07666H49.287C51.5397 5.07666 54.5354 5.45664 54.5354 8.74264C54.5354 12.0286 51.5397 12.4086 49.287 12.4086V12.4086ZM39.3053 11.5381H49.287C52.3558 11.5381 53.6649 10.7021 53.6649 8.74263C53.6649 6.78319 52.3558 5.94713 49.287 5.94713H39.3053V11.5381V11.5381Z" fill="#475569"/>
<path d="M77.4169 24.6056H71.2725V6.07937H61.2517V0.659668H87.5048V6.07937H77.4169V24.6056ZM72.143 23.7351H76.5464V5.20888H86.6343V1.53015H62.1222V5.20888H72.143V23.7351Z" fill="#475569"/>
<path d="M113.881 26.3313L109.939 23.4023C107.676 24.6383 104.917 25.2648 101.732 25.2648C94.5869 25.2648 89.1982 21.7332 89.1982 17.0497C89.1982 14.4293 90.8134 12.2055 93.6552 10.8725C92.4694 9.60464 91.9347 8.3478 91.9347 6.86398C91.9347 2.75851 95.7923 0 101.534 0C106.712 0 110.523 2.10438 112.857 6.2549L113.1 6.68632L107.977 8.75839L107.786 8.43919C106.17 5.74528 104.339 4.59597 101.666 4.59597C99.276 4.59597 97.8487 5.4316 97.8487 6.83083C97.8487 7.99459 98.9266 8.82044 101.074 10.4654L109.511 16.9595C110.068 15.8906 110.38 14.6341 110.461 13.1363L110.483 12.7249H116.034L116.012 13.1814C115.884 15.8187 115.082 18.2092 113.686 20.1248L116.814 22.4128L113.881 26.3313V26.3313ZM110.003 22.3648L113.704 25.1148L115.59 22.5956L112.449 20.2987L112.73 19.9442C114.117 18.1956 114.917 16.0619 115.113 13.5953H111.302C111.163 15.2594 110.74 16.6505 110.014 17.8373L109.761 18.2508L100.544 11.1565C98.2448 9.39467 96.9782 8.42431 96.9782 6.83083C96.9782 4.91518 98.7744 3.72549 101.666 3.72549C104.535 3.72549 106.606 4.94663 108.337 7.67411L111.847 6.25362C109.66 2.68073 106.192 0.870483 101.534 0.870483C96.3126 0.870483 92.8051 3.27919 92.8051 6.86398C92.8051 8.28702 93.3755 9.43462 94.7127 10.7017L95.2049 11.1679L94.5759 11.4213C91.7119 12.5735 90.0687 14.6252 90.0687 17.0497C90.0687 21.2367 95.0825 24.3944 101.732 24.3944C104.881 24.3944 107.581 23.7593 109.756 22.5076L110.003 22.3648ZM101.995 21.5071C97.4049 21.5071 94.439 19.5761 94.439 16.5881C94.439 15.0069 95.2381 13.6349 96.6883 12.7253L96.9416 12.5667L107.338 20.3471L106.652 20.6464C105.341 21.2176 103.775 21.5071 101.995 21.5071ZM96.9051 13.6272C95.8739 14.3664 95.3095 15.4077 95.3095 16.5881C95.3095 19.5761 98.9113 20.6366 101.995 20.6366C103.335 20.6366 104.538 20.4636 105.584 20.1214L96.9051 13.6272H96.9051Z" fill="#475569"/>
<path d="M5.40054 33.9313C5.40054 34.7121 4.73323 35.1402 3.67572 35.1402H0.395264V30.7329H3.42326C4.48161 30.7329 5.14892 31.1486 5.14892 31.8601C5.14892 32.3638 4.82164 32.7918 4.16622 32.836C4.85904 32.8734 5.40054 33.2326 5.40054 33.9313V33.9313ZM1.38986 32.5211H3.26004C3.8075 32.5211 4.14753 32.4331 4.14753 32.0238C4.14753 31.6208 3.8075 31.5265 3.26004 31.5265H1.38986V32.5211ZM4.3677 33.8179C4.3677 33.3711 4.03447 33.2891 3.46746 33.2891H1.38986V34.347H3.46746C4.03447 34.347 4.3677 34.2586 4.3677 33.8179Z" fill="#475569"/>
<path d="M11.4285 34.2965V35.1402H6.88904V30.7329H11.3656V31.5766H7.89043V32.4832H10.7926V33.3269H7.89043V34.2965H11.4285H11.4285Z" fill="#475569"/>
<path d="M16.5443 34.2085H13.881L13.4092 35.1402H12.3322L14.6682 30.7329H15.7699L18.1059 35.1402H17.0161L16.5443 34.2085ZM16.1227 33.3898L15.2097 31.5957L14.2967 33.3898H16.1227Z" fill="#475569"/>
<path d="M23.9323 30.7329V33.0626C23.9323 34.3849 23.0567 35.2787 21.4577 35.2787C19.8587 35.2787 18.984 34.3849 18.984 33.0626V30.7329H19.9914V32.9869C19.9914 33.8684 20.5074 34.3972 21.4577 34.3972C22.409 34.3972 22.925 33.8684 22.925 32.9869V30.7329H23.9323H23.9323Z" fill="#475569"/>
<path d="M30.0112 31.6017H28.0849V35.1402H27.0776V31.6017H25.1632V30.7329H30.0112V31.6017Z" fill="#475569"/>
<path d="M31.8899 30.7329L33.3759 32.7982L34.855 30.7329H35.995L33.8732 33.6355V35.1402H32.8658V33.6355L30.744 30.7329H31.8899Z" fill="#475569"/>
<path d="M76.277 35.1405L75.9497 34.8948C75.534 35.1341 75.0121 35.2663 74.3762 35.2663C73.0475 35.2663 72.0648 34.6241 72.0648 33.7808C72.0648 33.2831 72.3989 32.8614 72.9778 32.6285C72.7389 32.402 72.5876 32.1626 72.5876 31.8349C72.5876 31.1298 73.2549 30.6074 74.3379 30.6074C75.4839 30.6074 76.0883 31.1553 76.4283 31.7597L75.6037 32.0934C75.2637 31.5268 74.8794 31.3189 74.3634 31.3189C73.8661 31.3189 73.5508 31.5077 73.5508 31.829C73.5508 32.1121 73.8092 32.2885 74.3005 32.6663L75.8868 33.8875C76.0254 33.6609 76.107 33.3838 76.1257 33.0378H77.02C76.9953 33.5602 76.8312 34.0196 76.5414 34.3852L77.5241 35.1405H76.277H76.277ZM75.2824 34.3911L73.4564 33.025C73.1861 33.1951 73.0662 33.4407 73.0662 33.6924C73.0662 34.2526 73.6706 34.5488 74.4263 34.5488C74.7477 34.5488 75.0367 34.4982 75.2824 34.3911Z" fill="#475569"/>
<path d="M126.113 30.7329V35.1402H125.106V33.3456H122.102V35.1402H121.095V30.7329H122.102V32.4645H125.106V30.7329H126.113Z" fill="#475569"/>
<path d="M132.45 34.2965V35.1402H127.911V30.7329H132.387V31.5766H128.912V32.4832H131.814V33.3269H128.912V34.2965H132.45Z" fill="#475569"/>
<path d="M137.565 34.2085H134.902L134.43 35.1402H133.354L135.689 30.7329H136.791L139.127 35.1402H138.038L137.565 34.2085H137.565ZM137.144 33.3898L136.231 31.5957L135.318 33.3898H137.144Z" fill="#475569"/>
<path d="M144.463 34.2714V35.1402H140.339V30.7329H141.346V34.2714H144.463H144.463Z" fill="#475569"/>
<path d="M149.212 31.6017H147.286V35.1402H146.279V31.6017H144.364V30.7329H149.212V31.6017Z" fill="#475569"/>
<path d="M155.536 30.7329V35.1402H154.529V33.3456H151.525V35.1402H150.518V30.7329H151.525V32.4645H154.529V30.7329H155.536Z" fill="#475569"/>
<path d="M169.274 30.7329V33.0626C169.274 34.3849 168.399 35.2787 166.8 35.2787C165.201 35.2787 164.326 34.3849 164.326 33.0626V30.7329H165.333V32.9869C165.333 33.8684 165.849 34.3972 166.8 34.3972C167.751 34.3972 168.267 33.8684 168.267 32.9869V30.7329H169.274H169.274Z" fill="#475569"/>
<path d="M176.008 30.7329V35.1402H175.126L171.966 31.9545V35.1402H170.99V30.7329H172.06L175.032 33.7549V30.7329H176.008H176.008Z" fill="#475569"/>
<path d="M177.805 35.1402V30.7329H178.812V35.1402H177.805Z" fill="#475569"/>
<path d="M180.325 32.9366C180.325 31.463 181.408 30.5942 183.126 30.5942C184.845 30.5942 185.928 31.463 185.928 32.9366C185.928 34.4098 184.845 35.2786 183.126 35.2786C181.408 35.2786 180.325 34.4098 180.325 32.9366ZM184.902 32.9366C184.902 31.9922 184.216 31.463 183.126 31.463C182.037 31.463 181.351 31.9922 181.351 32.9366C181.351 33.8807 182.031 34.4098 183.126 34.4098C184.216 34.4098 184.902 33.8807 184.902 32.9366Z" fill="#475569"/>
<path d="M192.467 30.7329V35.1402H191.585L188.425 31.9545V35.1402H187.449V30.7329H188.519L191.491 33.7549V30.7329H192.467Z" fill="#475569"/>
</svg>
