<svg aria-hidden="true" style="position: absolute; width: 0; height: 0; overflow: hidden;" version="1.1" xmlns="http://www.w3.org/2000/svg" xmlns:xlink="http://www.w3.org/1999/xlink">
<defs>
<symbol id="icon-logo" viewBox="0 0 210 32">
<path fill="#475569" style="fill: var(--color1, #475569)" d="M114.518 6.782v3.074h12.239v5.162h-12.239v6.757h-7.076v-20.301h21.897v5.307h-14.82zM145.773 18.268h-10.15l-1.653 3.509h-7.367l10.297-20.301h7.685l10.295 20.301h-7.453l-1.653-3.509zM144.249 13.685l-2.929-6.264-2.929 6.264h5.858zM172.441 13.975l5.83 3.074c-1.828 3.075-6.091 5.395-11.717 5.395-7.685 0-13.021-3.886-13.021-10.818s5.336-10.818 13.283-10.818c5.365 0 9.6 2.349 11.368 5.366l-5.857 3.045c-1.248-1.943-3.162-2.871-5.598-2.871-3.596 0-6.032 1.914-6.032 5.279s2.436 5.279 6.032 5.279c2.436 0 4.38-0.87 5.713-2.929v0zM203.568 6.841h-8.034v14.936h-7.077v-14.936h-8.004v-5.365h23.115v5.365z"></path>
<path fill="#475569" style="fill: var(--color1, #475569)" d="M202.092 18.876c0-1.856 1.566-3.335 3.828-3.335 2.291 0 3.857 1.479 3.857 3.335 0 1.885-1.566 3.335-3.857 3.335-2.262 0-3.828-1.45-3.828-3.335z"></path>
<path fill="#475569" style="fill: var(--color1, #475569)" d="M28.156 21.872h-5.95l-2.197-4.337h-11.92l-2.197 4.337h-5.892l11.281-21.285h5.593l11.281 21.285zM22.682 21.098h4.188l-10.461-19.738h-4.662l-10.461 19.738h4.13l2.197-4.337h12.872l2.197 4.337z"></path>
<path fill="#475569" style="fill: var(--color1, #475569)" d="M18.914 13.726h-9.76l4.88-9.591 4.88 9.591zM10.416 12.952h7.236l-3.618-7.111-3.618 7.111z"></path>
<path fill="#475569" style="fill: var(--color1, #475569)" d="M54.328 21.872h-6.625l-5.889-6.974h-6.846v6.974h-5.434v-21.285h14.54c5.661 0 9.178 2.742 9.178 7.155 0 3.258-1.959 5.659-5.401 6.664l6.477 7.466zM48.063 21.098h4.569l-6.194-7.14 0.625-0.146c3.492-0.813 5.415-2.969 5.415-6.070 0-4.705-4.341-6.382-8.404-6.382h-13.766v19.738h3.886v-6.974h7.979l5.889 6.974z"></path>
<path fill="#475569" style="fill: var(--color1, #475569)" d="M43.811 11.030h-9.646v-6.517h9.646c2.002 0 4.665 0.338 4.665 3.259s-2.663 3.259-4.665 3.259v0zM34.938 10.256h8.873c2.728 0 3.891-0.743 3.891-2.485s-1.164-2.485-3.891-2.485h-8.873v4.97z"></path>
<path fill="#475569" style="fill: var(--color1, #475569)" d="M68.815 21.872h-5.462v-16.468h-8.907v-4.817h23.336v4.817h-8.967v16.468zM64.127 21.098h3.914v-16.468h8.967v-3.27h-21.789v3.27h8.907v16.468z"></path>
<path fill="#475569" style="fill: var(--color1, #475569)" d="M101.228 23.406l-3.504-2.604c-2.012 1.099-4.464 1.656-7.295 1.656-6.351 0-11.141-3.139-11.141-7.302 0-2.329 1.436-4.306 3.962-5.491-1.054-1.127-1.529-2.244-1.529-3.563 0-3.649 3.429-6.101 8.533-6.101 4.603 0 7.99 1.871 10.065 5.56l0.216 0.383-4.554 1.842-0.17-0.284c-1.436-2.395-3.064-3.416-5.44-3.416-2.124 0-3.393 0.743-3.393 1.987 0 1.034 0.958 1.769 2.867 3.231l7.5 5.773c0.495-0.95 0.772-2.067 0.844-3.398l0.020-0.366h4.934l-0.020 0.406c-0.114 2.344-0.827 4.469-2.068 6.172l2.78 2.034-2.607 3.483zM97.78 19.88l3.29 2.444 1.676-2.239-2.792-2.042 0.25-0.315c1.233-1.554 1.944-3.451 2.118-5.643h-3.388c-0.124 1.479-0.5 2.716-1.145 3.771l-0.225 0.368-8.193-6.306c-2.044-1.566-3.17-2.429-3.17-3.845 0-1.703 1.597-2.76 4.167-2.76 2.55 0 4.391 1.085 5.93 3.51l3.12-1.263c-1.944-3.176-5.027-4.785-9.167-4.785-4.641 0-7.759 2.141-7.759 5.328 0 1.265 0.507 2.285 1.696 3.411l0.438 0.414-0.559 0.225c-2.546 1.024-4.006 2.848-4.006 5.003 0 3.722 4.457 6.529 10.367 6.529 2.799 0 5.199-0.565 7.132-1.677l0.22-0.127zM90.662 19.117c-4.080 0-6.716-1.716-6.716-4.372 0-1.405 0.71-2.625 1.999-3.434l0.225-0.141 9.241 6.916-0.61 0.266c-1.165 0.508-2.557 0.765-4.14 0.765v0zM86.138 12.113c-0.917 0.657-1.418 1.583-1.418 2.632 0 2.656 3.202 3.599 5.943 3.599 1.191 0 2.26-0.154 3.19-0.458l-7.715-5.773z"></path>
<path fill="#475569" style="fill: var(--color1, #475569)" d="M4.8 30.161c0 0.694-0.593 1.075-1.533 1.075h-2.916v-3.918h2.692c0.941 0 1.534 0.369 1.534 1.002 0 0.448-0.291 0.828-0.873 0.867 0.616 0.033 1.097 0.353 1.097 0.974v0zM1.235 28.908h1.662c0.487 0 0.789-0.078 0.789-0.442 0-0.358-0.302-0.442-0.789-0.442h-1.662v0.884zM3.882 30.060c0-0.397-0.296-0.47-0.8-0.47h-1.847v0.94h1.847c0.504 0 0.8-0.079 0.8-0.47v0z"></path>
<path fill="#475569" style="fill: var(--color1, #475569)" d="M10.159 30.486v0.75h-4.035v-3.918h3.979v0.75h-3.089v0.806h2.58v0.75h-2.58v0.862h3.145z"></path>
<path fill="#475569" style="fill: var(--color1, #475569)" d="M14.706 30.408h-2.367l-0.419 0.828h-0.957l2.076-3.918h0.979l2.076 3.918h-0.969l-0.419-0.828zM14.331 29.68l-0.812-1.595-0.812 1.595h1.623z"></path>
<path fill="#475569" style="fill: var(--color1, #475569)" d="M21.273 27.318v2.071c0 1.175-0.778 1.97-2.2 1.97s-2.199-0.794-2.199-1.97v-2.071h0.895v2.004c0 0.784 0.459 1.254 1.303 1.254s1.304-0.47 1.304-1.254v-2.004h0.895z"></path>
<path fill="#475569" style="fill: var(--color1, #475569)" d="M26.677 28.090h-1.712v3.145h-0.895v-3.145h-1.702v-0.772h4.309v0.772z"></path>
<path fill="#475569" style="fill: var(--color1, #475569)" d="M28.347 27.318l1.321 1.836 1.315-1.836h1.013l-1.886 2.58v1.337h-0.895v-1.337l-1.886-2.58h1.019z"></path>
<path fill="#475569" style="fill: var(--color1, #475569)" d="M67.802 31.236l-0.291-0.218c-0.37 0.213-0.833 0.33-1.399 0.33-1.181 0-2.055-0.571-2.055-1.32 0-0.442 0.297-0.817 0.812-1.024-0.212-0.201-0.347-0.414-0.347-0.705 0-0.627 0.593-1.091 1.556-1.091 1.019 0 1.556 0.487 1.858 1.024l-0.733 0.297c-0.302-0.504-0.644-0.688-1.103-0.688-0.442 0-0.722 0.168-0.722 0.453 0 0.252 0.23 0.408 0.666 0.744l1.41 1.085c0.123-0.201 0.196-0.448 0.212-0.755h0.795c-0.022 0.464-0.168 0.873-0.425 1.198l0.874 0.671h-1.109zM66.918 30.57l-1.623-1.214c-0.24 0.151-0.347 0.369-0.347 0.593 0 0.498 0.537 0.761 1.209 0.761 0.286 0 0.543-0.045 0.761-0.14z"></path>
<path fill="#475569" style="fill: var(--color1, #475569)" d="M112.1 27.318v3.918h-0.895v-1.595h-2.67v1.595h-0.895v-3.918h0.895v1.539h2.67v-1.539h0.895z"></path>
<path fill="#475569" style="fill: var(--color1, #475569)" d="M117.733 30.486v0.75h-4.035v-3.918h3.979v0.75h-3.089v0.806h2.58v0.75h-2.58v0.862h3.145z"></path>
<path fill="#475569" style="fill: var(--color1, #475569)" d="M122.28 30.408h-2.367l-0.42 0.828h-0.956l2.076-3.918h0.98l2.076 3.918h-0.968l-0.42-0.828zM121.906 29.68l-0.812-1.595-0.812 1.595h1.623z"></path>
<path fill="#475569" style="fill: var(--color1, #475569)" d="M128.412 30.463v0.772h-3.666v-3.918h0.895v3.145h2.771z"></path>
<path fill="#475569" style="fill: var(--color1, #475569)" d="M132.633 28.090h-1.712v3.145h-0.895v-3.145h-1.702v-0.772h4.309v0.772z"></path>
<path fill="#475569" style="fill: var(--color1, #475569)" d="M138.254 27.318v3.918h-0.895v-1.595h-2.67v1.595h-0.895v-3.918h0.895v1.539h2.67v-1.539h0.895z"></path>
<path fill="#475569" style="fill: var(--color1, #475569)" d="M150.466 27.318v2.071c0 1.175-0.778 1.97-2.199 1.97s-2.199-0.794-2.199-1.97v-2.071h0.895v2.004c0 0.784 0.459 1.254 1.304 1.254s1.304-0.47 1.304-1.254v-2.004h0.895z"></path>
<path fill="#475569" style="fill: var(--color1, #475569)" d="M156.452 27.318v3.918h-0.784l-2.809-2.832v2.832h-0.868v-3.918h0.951l2.642 2.686v-2.686h0.868z"></path>
<path fill="#475569" style="fill: var(--color1, #475569)" d="M158.049 31.236v-3.918h0.895v3.918h-0.895z"></path>
<path fill="#475569" style="fill: var(--color1, #475569)" d="M160.289 29.277c0-1.31 0.963-2.082 2.49-2.082s2.491 0.772 2.491 2.082c0 1.309-0.963 2.082-2.491 2.082s-2.49-0.772-2.49-2.082zM164.357 29.277c0-0.839-0.61-1.31-1.579-1.31s-1.578 0.47-1.578 1.31c0 0.839 0.604 1.309 1.578 1.309 0.969 0 1.579-0.47 1.579-1.309z"></path>
<path fill="#475569" style="fill: var(--color1, #475569)" d="M171.082 27.318v3.918h-0.784l-2.809-2.832v2.832h-0.868v-3.918h0.951l2.642 2.686v-2.686h0.868z"></path>
</symbol>
</defs>
</svg>
